<svg id="Layer_4" data-name="Layer 4" xmlns="http://www.w3.org/2000/svg" viewBox="0 0 72 72"><defs><style>.cls-1{fill:#fff;}.cls-2{fill:#82bc41;}</style></defs><title>instagram_footer_icon</title><circle id="Ellipse_12" data-name="Ellipse 12" class="cls-1" cx="36" cy="36" r="36"/><circle id="Ellipse_12-2" data-name="Ellipse 12" class="cls-2" cx="36" cy="36" r="30"/><path class="cls-1" d="M49.76,20.13H23.89A4.08,4.08,0,0,0,20,24.06V49.94a4.1,4.1,0,0,0,3.94,3.94H49.76a4.1,4.1,0,0,0,3.94-3.94V24.06A4.08,4.08,0,0,0,49.76,20.13ZM42.9,25.32v-.06a1.37,1.37,0,0,1,1.4-1.34h4.27a1.37,1.37,0,0,1,1.33,1.4v4.27a1.36,1.36,0,0,1-1.4,1.33H44.24a1.37,1.37,0,0,1-1.34-1.4ZM36.83,30.2a6.8,6.8,0,1,1,0,13.6h-.12a6.8,6.8,0,0,1,.12-13.6Zm13.8,18.74V49a1.36,1.36,0,0,1-1.4,1.33H24.43a.08.08,0,0,1-.07,0A1.36,1.36,0,0,1,23,48.94V33.73h3.2a12.7,12.7,0,0,0-.4,2.81,11,11,0,1,0,22,0,14,14,0,0,0-.4-2.81h3.2Z" transform="translate(-0.83 -1)"/></svg>