<svg id="Layer_2" data-name="Layer 2" xmlns="http://www.w3.org/2000/svg" viewBox="0 0 72 72"><defs><style>.cls-1{fill:#fff;}.cls-2{fill:#82bc41;}</style></defs><title>twitter_footer_icon</title><circle id="Ellipse_12" data-name="Ellipse 12" class="cls-1" cx="36" cy="36" r="36"/><circle id="Ellipse_12-2" data-name="Ellipse 12" class="cls-2" cx="36" cy="36" r="30"/><path class="cls-1" d="M52.92,24a15.5,15.5,0,0,1-4.35,1.65,7.26,7.26,0,0,0-5.1-2.25,7,7,0,0,0-6.9,6.9,4.76,4.76,0,0,0,.15,1.5,19.73,19.73,0,0,1-14.25-7.2,7,7,0,0,0,2.1,9.15,7.08,7.08,0,0,1-3.15-.9V33A6.91,6.91,0,0,0,27,39.7a7.88,7.88,0,0,1-1.8.3,4.38,4.38,0,0,1-1.35-.15,6.94,6.94,0,0,0,6.45,4.8,13.2,13.2,0,0,1-8.55,3c-.6,0-1-.15-1.65-.15a19.21,19.21,0,0,0,10.5,3.15h.35A19.48,19.48,0,0,0,50.22,31v-.9a15.93,15.93,0,0,0,3.6-3.45,16.68,16.68,0,0,1-3.9,1.05A6.34,6.34,0,0,0,52.92,24Z" transform="translate(-0.94 -1)"/></svg>